<svg width="24" height="24" viewBox="0 0 24 24" fill="none" xmlns="http://www.w3.org/2000/svg">
<path d="M10.5072 2C8.05885 1.99845 5.68694 2.85244 3.80157 4.41431C1.9162 5.97618 0.63589 8.14775 0.182023 10.5535C-0.271845 12.9593 0.129259 15.448 1.31598 17.5894C2.5027 19.7308 4.40044 21.3902 6.68105 22.2808C6.58918 21.4499 6.50517 20.1729 6.71649 19.2659C6.90813 18.4456 7.94768 14.0461 7.94768 14.0461C7.94768 14.0461 7.63397 13.4174 7.63397 12.4882C7.63397 11.0274 8.48058 9.938 9.53456 9.938C10.4297 9.938 10.8629 10.61 10.8629 11.4172C10.8629 12.3176 10.2893 13.6642 9.99265 14.9124C9.74589 15.9571 10.5177 16.8103 11.548 16.8103C13.4145 16.8103 14.8491 14.8415 14.8491 12.0013C14.8491 9.48781 13.0417 7.73038 10.4625 7.73038C7.47515 7.73038 5.72157 9.97081 5.72157 12.2861C5.72157 13.1891 6.0694 14.1564 6.50255 14.6827C6.53985 14.7224 6.56623 14.771 6.57911 14.8239C6.59199 14.8768 6.59094 14.9322 6.57605 14.9846C6.49598 15.3153 6.31879 16.0293 6.28466 16.175C6.23872 16.3666 6.1324 16.4073 5.93289 16.3154C4.62033 15.7051 3.80129 13.7876 3.80129 12.2467C3.80129 8.93525 6.20853 5.89419 10.7395 5.89419C14.3819 5.89419 17.2131 8.489 17.2131 11.9579C17.2131 15.5765 14.9305 18.4889 11.7646 18.4889C10.7001 18.4889 9.69995 17.9364 9.35737 17.2828L8.70371 19.7791C8.46614 20.6913 7.82561 21.8345 7.39771 22.5314C8.84149 22.9778 10.3646 23.1073 11.863 22.9111C13.3615 22.7149 14.7999 22.1975 16.08 21.3944C17.3602 20.5913 18.4518 19.5214 19.2805 18.2577C20.1092 16.994 20.6553 15.5663 20.8816 14.0722C21.1079 12.5781 21.009 11.0527 20.5917 9.60036C20.1743 8.14798 19.4484 6.80279 18.4635 5.65667C17.4785 4.51056 16.2578 3.59054 14.8847 2.95946C13.5116 2.32838 12.0184 2.00111 10.5072 2Z" fill="#1E6655"/>
</svg>
